<svg width="49" height="48" viewBox="0 0 49 48" fill="none" xmlns="http://www.w3.org/2000/svg">
<path d="M38.4844 2C41.2458 2 43.4844 4.55837 43.4844 7.71429V36.2857C43.4844 39.4417 41.2458 42 38.4844 42C35.7229 42 33.4844 39.4417 33.4844 36.2857V7.71429C33.4844 4.55837 35.7229 2 38.4844 2Z" fill="#027FC2"/>
<path d="M29.4844 15.8182C29.4844 12.6049 27.2458 10 24.4844 10C21.7229 10 19.4844 12.6049 19.4844 15.8182V36.1818C19.4844 39.3952 21.7229 42 24.4844 42C27.2458 42 29.4844 39.3952 29.4844 36.1818V15.8182Z" fill="#027FC2"/>
<path d="M15.4844 24.75C15.4844 21.5744 13.2459 19 10.4844 19C7.72287 19 5.48437 21.5744 5.48437 24.75V36.25C5.48437 39.4257 7.72287 42 10.4844 42C13.2459 42 15.4844 39.4257 15.4844 36.25V24.75Z" fill="#51BCF4"/>
</svg>
