<svg width="49" height="48" viewBox="0 0 49 48" fill="none" xmlns="http://www.w3.org/2000/svg">
<g clip-path="url(#clip0_5145_44134)">
<path fill-rule="evenodd" clip-rule="evenodd" d="M24.4141 4.375C17.6486 4.375 12.1641 9.85951 12.1641 16.625C12.1641 23.3905 17.6486 28.875 24.4141 28.875C31.1796 28.875 36.6641 23.3905 36.6641 16.625C36.6641 9.85951 31.1796 4.375 24.4141 4.375ZM8.66406 16.625C8.66406 7.92651 15.7156 0.875 24.4141 0.875C33.1125 0.875 40.1641 7.92651 40.1641 16.625C40.1641 25.3235 33.1125 32.375 24.4141 32.375C15.7156 32.375 8.66406 25.3235 8.66406 16.625Z" fill="#027FC2"/>
<path d="M20.9141 14C20.9141 15.4497 20.1306 16.625 19.1641 16.625C18.1976 16.625 17.4141 15.4497 17.4141 14C17.4141 12.5503 18.1976 11.375 19.1641 11.375C20.1306 11.375 20.9141 12.5503 20.9141 14Z" fill="#027FC2"/>
<path d="M31.4141 14C31.4141 15.4497 30.6306 16.625 29.6641 16.625C28.6976 16.625 27.9141 15.4497 27.9141 14C27.9141 12.5503 28.6976 11.375 29.6641 11.375C30.6306 11.375 31.4141 12.5503 31.4141 14Z" fill="#027FC2"/>
<path fill-rule="evenodd" clip-rule="evenodd" d="M28.2095 20.0267C28.2095 20.0267 28.2089 20.0275 28.2078 20.0293C28.7439 19.2251 29.8304 19.0078 30.6346 19.5439C31.4388 20.08 31.6561 21.1666 31.12 21.9707C30.5383 22.8432 29.5353 23.4542 28.4757 23.845C27.3653 24.2546 25.9897 24.5 24.4139 24.5C21.2162 24.5 19.1738 23.4848 17.9264 22.2374C17.243 21.554 17.243 20.446 17.9264 19.7626C18.6099 19.0791 19.7179 19.0791 20.4013 19.7626C20.904 20.2652 22.0116 21 24.4139 21C25.638 21 26.5958 20.8079 27.2645 20.5613C27.5987 20.438 27.842 20.3081 28.0054 20.1967C28.1586 20.0922 28.2092 20.0264 28.2095 20.0267Z" fill="#027FC2"/>
<path fill-rule="evenodd" clip-rule="evenodd" d="M3.41406 28.125C3.41406 27.5727 3.86178 27.125 4.41406 27.125H44.4141C44.9663 27.125 45.4141 27.5727 45.4141 28.125V47.125C45.4141 47.6773 44.9663 48.125 44.4141 48.125H4.41406C3.86178 48.125 3.41406 47.6773 3.41406 47.125V28.125ZM11.2879 43.7493C11.2879 45.4993 13.0379 45.4993 13.0379 45.4993C13.0379 45.4993 14.7879 45.4993 14.7879 43.7493H11.2879ZM26.1629 32.375C25.1964 32.375 24.4129 33.1585 24.4129 34.125C24.4129 35.0915 25.1964 35.875 26.1629 35.875H41.9129C42.8794 35.875 43.6629 35.0915 43.6629 34.125C43.6629 33.1585 42.8794 32.375 41.9129 32.375H26.1629ZM24.4129 41.1257C24.4129 40.1592 25.1964 39.3757 26.1629 39.3757H36.6629C37.6294 39.3757 38.4129 40.1592 38.4129 41.1257C38.4129 42.0922 37.6294 42.8757 36.6629 42.8757H26.1629C25.1964 42.8757 24.4129 42.0922 24.4129 41.1257ZM11.2879 30.75V32.6885C8.14744 33.9032 7.09952 38.4042 6.93601 41.8766C6.91003 42.4283 7.35999 42.875 7.91228 42.875H18.1623C18.7146 42.875 19.1645 42.4283 19.1385 41.8766C18.9751 38.4047 17.9274 33.9045 14.7879 32.689V30.75C14.7879 30.1977 14.3402 29.75 13.7879 29.75H12.2879C11.7357 29.75 11.2879 30.1977 11.2879 30.75Z" fill="#51BCF4"/>
</g>
<defs>
<clipPath id="clip0_5145_44134">
<rect width="48" height="48" fill="white" transform="translate(0.414062)"/>
</clipPath>
</defs>
</svg>
