<svg width="48" height="48" viewBox="0 0 48 48" fill="none" xmlns="http://www.w3.org/2000/svg">
<path d="M5.64648 28.793C5.64648 18.5921 13.9456 10.293 24.1465 10.293C34.3474 10.293 42.6465 18.5921 42.6465 28.793C42.6465 38.9939 34.3474 47.293 24.1465 47.293C13.9456 47.293 5.64648 38.9939 5.64648 28.793Z" fill="#51BCF4"/>
<path d="M24.3446 0C20.8844 0.0043894 17.5673 1.38088 15.1206 3.82758C13.1491 5.79908 11.8724 8.33576 11.4486 11.057C11.2785 12.1494 12.1899 13.0516 13.2955 13.0516H15.9283C17.0328 13.0516 17.8974 12.1346 18.2369 11.0835C19.0697 8.50439 21.4937 6.63529 24.3446 6.63529C27.8812 6.63529 30.7609 9.51169 30.7609 13.0516C30.7609 15.0356 29.1651 16.4754 26.7267 18.4461C25.9301 19.0702 25.165 19.7334 24.4342 20.4334C21.1232 23.7411 21.0269 27.2545 21.0269 27.646C21.0269 28.8681 22.0177 29.8588 23.2398 29.8588H25.5622C26.7215 29.8588 27.6608 28.9181 27.6589 27.7588C27.6622 27.7057 27.7684 26.4781 29.122 25.1279C29.6197 24.6302 30.2467 24.1326 30.8969 23.6084C33.4814 21.5149 37.3929 18.3532 37.3929 13.0516C37.3903 9.5915 36.0148 6.2738 33.5684 3.82681C31.1221 1.37983 27.8047 0.00351449 24.3446 0ZM21.0269 35.1765C21.0269 34.0719 21.9224 33.1765 23.0269 33.1765H25.6622C26.7668 33.1765 27.6622 34.0719 27.6622 35.1765V37.8118C27.6622 38.9163 26.7668 39.8118 25.6622 39.8118H23.0269C21.9224 39.8118 21.0269 38.9163 21.0269 37.8118V35.1765Z" fill="#027FC2"/>
</svg>
