<svg width="48" height="48" viewBox="0 0 48 48" fill="none" xmlns="http://www.w3.org/2000/svg">
<g clip-path="url(#clip0_5145_44093)">
<path d="M25.5021 13.9384C27.6159 12.3689 30.5818 14.0891 30.2692 16.7032L26.894 44.9321C26.5702 47.6407 23.0924 48.5464 21.4886 46.3399L15.8209 38.5427C15.3237 37.8586 14.5609 37.4162 13.7202 37.3243L4.13831 36.277C1.42663 35.9806 0.485751 32.5122 2.67591 30.8861L25.5021 13.9384Z" fill="#027FC2"/>
<path fill-rule="evenodd" clip-rule="evenodd" d="M26.0218 18.5345L7.10754 32.5777L14.1549 33.348C16.1164 33.5624 17.8963 34.5947 19.0565 36.1908L23.225 41.9256L26.0218 18.5345ZM30.2692 16.7032C30.5818 14.0891 27.6159 12.3689 25.5021 13.9384L2.67591 30.8861C0.485751 32.5122 1.42663 35.9806 4.13831 36.277L13.7202 37.3243C14.5609 37.4162 15.3237 37.8586 15.8209 38.5427L21.4886 46.3399C23.0924 48.5464 26.5702 47.6407 26.894 44.9321L30.2692 16.7032Z" fill="#027FC2"/>
<path fill-rule="evenodd" clip-rule="evenodd" d="M15.8911 2.61812C16.7688 1.94754 18.024 2.11545 18.6945 2.99317L23.0285 8.6658C23.6991 9.54352 23.5311 10.7987 22.6534 11.4693C21.7757 12.1398 20.5206 11.9719 19.85 11.0942L15.516 5.42157C14.8455 4.54385 15.0134 3.28871 15.8911 2.61812Z" fill="#51BCF4"/>
<path fill-rule="evenodd" clip-rule="evenodd" d="M29.5938 0.393055C30.687 0.551141 31.445 1.56551 31.2869 2.65871L30.2652 9.72397C30.1071 10.8172 29.0928 11.5752 27.9996 11.4171C26.9064 11.259 26.1483 10.2447 26.3064 9.15148L27.3281 2.08622C27.4862 0.993026 28.5006 0.234968 29.5938 0.393055Z" fill="#51BCF4"/>
<path fill-rule="evenodd" clip-rule="evenodd" d="M41.3456 7.38985C41.9736 8.29854 41.746 9.54426 40.8373 10.1722L34.9645 14.2308C34.0558 14.8588 32.8101 14.6312 32.1821 13.7225C31.5542 12.8138 31.7817 11.5681 32.6904 10.9401L38.5632 6.88157C39.4719 6.25359 40.7176 6.48116 41.3456 7.38985Z" fill="#51BCF4"/>
<path fill-rule="evenodd" clip-rule="evenodd" d="M44.7702 19.2929C44.9121 18.1974 44.1391 17.1944 43.0437 17.0525L35.9641 16.1355C34.8686 15.9937 33.8656 16.7666 33.7237 17.8621C33.5818 18.9575 34.3548 19.9605 35.4503 20.1024L42.5299 21.0194C43.6253 21.1613 44.6283 20.3883 44.7702 19.2929Z" fill="#51BCF4"/>
</g>
<defs>
<clipPath id="clip0_5145_44093">
<rect width="48" height="48" fill="white"/>
</clipPath>
</defs>
</svg>
