<svg width="48" height="48" viewBox="0 0 48 48" fill="none" xmlns="http://www.w3.org/2000/svg">
<rect y="4" width="39" height="39" rx="5" fill="#51BCF4"/>
<path d="M29.5008 11.3134C29.5008 9.97968 30.6089 8.89844 31.9758 8.89844H43.5258C44.8926 8.89844 46.0008 9.97968 46.0008 11.3134V22.5835C46.0008 23.9172 44.8926 24.9985 43.5258 24.9985C42.1589 24.9985 41.0508 23.9172 41.0508 22.5835V17.1437L27.9508 29.9261C27.4868 30.3791 26.8571 30.6335 26.2008 30.6335C25.5444 30.6335 24.9148 30.3791 24.4505 29.9261L19.6008 25.1939L12.2759 32.3411C11.3093 33.2842 9.74222 33.2842 8.77568 32.3411C7.80915 31.3979 7.80915 29.8691 8.77568 28.9259L17.8507 20.0708C18.3148 19.6179 18.9444 19.3635 19.6008 19.3635C20.2572 19.3635 20.8867 19.6179 21.3509 20.0708L26.2008 24.8032L37.5505 13.7285H31.9758C30.6089 13.7285 29.5008 12.6472 29.5008 11.3134Z" fill="#027FC2"/>
</svg>
