<svg width="48" height="48" viewBox="0 0 48 48" fill="none" xmlns="http://www.w3.org/2000/svg">
<g clip-path="url(#clip0_5145_44174)">
<path d="M0.414062 7.95829C0.414062 5.2199 2.62484 3 5.35198 3H39.3687C42.0958 3 44.3067 5.2199 44.3067 7.95829V30.5461C44.3067 23.8522 38.9026 18.4258 32.2362 18.4258C25.5698 18.4258 20.1657 23.8522 20.1657 30.5461C20.1657 33.4761 21.2012 36.1635 22.9248 38.259H5.35198C2.62484 38.259 0.414062 36.039 0.414062 33.3007V7.95829Z" fill="#51BCF4"/>
<path d="M40.424 36.1898C41.5735 34.5688 42.2497 32.5857 42.2497 30.4439C42.2497 24.9671 37.8282 20.5273 32.3739 20.5273C26.9196 20.5273 22.498 24.9671 22.498 30.4439C22.498 35.9208 26.9196 40.3605 32.3739 40.3605C34.5068 40.3605 36.4818 39.6816 38.0962 38.5273L43.8292 44.2837C44.472 44.9292 45.514 44.9292 46.1568 44.2837C46.7996 43.6383 46.7996 42.592 46.1568 41.9465L40.424 36.1898ZM38.9578 30.4439C38.9578 34.0952 36.0102 37.055 32.3739 37.055C28.7376 37.055 25.79 34.0952 25.79 30.4439C25.79 26.7926 28.7376 23.8329 32.3739 23.8329C36.0102 23.8329 38.9578 26.7926 38.9578 30.4439Z" fill="#027FC2"/>
</g>
<defs>
<clipPath id="clip0_5145_44174">
<rect width="47.331" height="48" fill="white" transform="translate(0.414062)"/>
</clipPath>
</defs>
</svg>
