<svg aria-hidden="true" style="position:absolute;width:0;height:0" overflow="hidden">
  <defs>
    <symbol id="hero-b" viewBox="0 0 36 32">
      <path fill="var(--color1, #ecf8fc)" d="M31.855 25.767c-2.385 1.799-6.231 1.895-9.581 2.663-2.939.673-5.733 1.922-8.783 1.544-3.096-.384-5.437-2.01-7.624-3.576-2.266-1.623-4.38-3.371-5.141-5.565-.836-2.411-1.329-5.197.7-7.237 1.999-2.01 6.076-2.136 9.411-2.928 2.988-.71 5.848-1.51 9.008-1.449 3.748.072 7.763.172 10.652 1.828 3.08 1.766 4.945 4.496 5.199 7.258.249 2.703-1.198 5.469-3.842 7.463z"/>
      <path fill="var(--color2, #027fc2)" d="M12.418 17.994s.072-3.024-1.321-3.834-4.042-1.315-4.141-5.658c-.058-2.543-.12-3.654-.163-4.139-.004-.044.002-.088.019-.13s.042-.078.074-.108a.285.285 0 0 1 .245-.069c1.32.248 5.605 1.272 6.504 4.197 1.065 3.468-1.217 9.741-1.217 9.741z"/>
      <path fill="var(--color3, #51bcf4)" d="M8.151 5.265c1.448 1.291 3.123 3.577 4.015 5.863.115.377.45 1.178.595 2.601.13 1.187.065 2.442-.092 3.272a.095.095 0 0 1-.04.062c-.01.007-.022.012-.035.015s-.025.003-.038 0c-.09-.017-.078-.114-.078-.111.18-1.419.105-3.185-.307-4.778-.527-1.956-1.702-3.853-2.918-5.462l-.125-.158c-.942-1.21-1.14-1.218-1.052-1.303a.055.055 0 0 1 .074-.001z"/>
      <path fill="var(--color3, #51bcf4)" d="M14.656 23.809c.188.092-1.784-2.388-2.402-6.285-.291-1.836-.295-4.136-1.341-5.023-.87-.738-3.832-.272-4.801-.095-.027.005-.052.017-.073.036s-.035.043-.042.07a.149.149 0 0 0 .047.149c.465.39 1.459 1.311 1.718 2.238.342 1.223 1.504 2.001 2.545 2.211s1.62.415 2.127 2.079c.507 1.665 1.686 4.356 2.222 4.619z"/>
      <path fill="var(--color4, #fff)" d="M7.475 12.923c1.236.052 2.564.616 3.237 1.674l.064.101c.147.237.979 1.92 1.441 3.315.003.008.002.017-.002.025s-.011.014-.019.017c-.008.003-.017.002-.025-.002s-.014-.01-.017-.018a43.242 43.242 0 0 0-1.153-2.534c-.395-.815-.671-1.368-1.572-1.896-1.003-.57-1.961-.628-1.958-.628-.007-.001-.014-.004-.018-.009s-.007-.012-.006-.019c0-.007.004-.014.009-.018s.012-.007.019-.006z"/>
      <path fill="var(--color2, #027fc2)" d="M13.81 24.135c.112.059-.63-1.218-.687-2.343s-.311-3.045-1.281-4.193c-.97-1.149-2.032-1.253-3.371-.209-1.115.87-1.811 1.309-2.219 1.391a.154.154 0 0 0-.103.225c.262.482 1.002 1.589 2.244 1.511 1.585-.099 3.506-1.13 4.091-.27s.51 1.34.528 1.748c.018.407.058 1.751.798 2.141z"/>
      <path fill="var(--color3, #51bcf4)" d="M8.921 18.769c.486-.465 1.276-.923 1.967-.838.899.145 1.498.745 1.825 1.639.128.38.18.582.256 1.047.006.037-.049.048-.058.012-.055-.218-.109-.447-.191-.684-.473-1.527-1.486-1.732-1.525-1.764-.076.008-.54-.34-1.64.252a4.776 4.776 0 0 0-.593.38l-.001.001c-.006.005-.014.007-.022.006s-.015-.005-.02-.011c-.005-.006-.008-.014-.007-.022s.004-.015.01-.021z"/>
      <path fill="var(--color5, #76838f)" d="M12.376 5.738a1.09 1.09 0 0 0-.995 1.085c-.01 3.454-.026 15.369.199 19.587a.844.844 0 0 0 .838.803c2.213.024 8.578.068 12.191-.164a1.425 1.425 0 0 0 1.337-1.426c-.004-3.625-.062-13.821-.559-18.482a1.161 1.161 0 0 0-1.069-1.038c-2.413-.188-8.822-.636-11.942-.365z"/>
      <path fill="var(--color6, #ebf8ff)" d="M12.269 7.728c-.043 2.955-.167 12.785.049 16.413.032.53.443.949.952.967 2.094.073 7.464.214 10.524-.122.551-.06.972-.538.987-1.117.076-3.015.283-12.171.073-15.758-.034-.572-.471-1.029-1.019-1.066-2.267-.153-8.09-.505-10.692-.288-.489.041-.867.461-.874.972z"/>
      <path fill="var(--color7, #f7b614)" d="M20.76 7.243a.094.094 0 0 1-.025.037l-.608.566a.37.37 0 0 0-.114.326l.122.822a.093.093 0 0 1-.004.044.095.095 0 0 1-.056.056.084.084 0 0 1-.076-.006l-.726-.404a.364.364 0 0 0-.344-.007l-.744.369c-.015.008-.032.011-.049.009s-.033-.008-.047-.018c-.014-.01-.024-.024-.03-.04s-.008-.033-.004-.05l.159-.816a.378.378 0 0 0-.099-.33l-.582-.593a.09.09 0 0 1 .008-.135.096.096 0 0 1 .046-.02l.825-.101a.37.37 0 0 0 .283-.196l.385-.736c.008-.015.02-.028.035-.036s.032-.013.049-.013.034.006.048.015.026.022.033.038l.35.754a.373.373 0 0 0 .274.209l.82.138a.09.09 0 0 1 .076.08.091.091 0 0 1-.004.04z"/>
      <path fill="var(--color4, #fff)" opacity=".67" d="M19.126 8.503c-.001.004-.004.008-.008.01s-.008.004-.012.004a.492.492 0 0 0-.229.051l-.283.141-.008.002-.008-.001-.007-.004-.005-.007-.002-.008.001-.008.004-.007.006-.005.283-.141a.532.532 0 0 1 .248-.055.02.02 0 0 1 .021.021l-.001.006zM19.912 8.307l-.008.011c-.003.003-.009.004-.013.003-.005 0-.009-.002-.012-.006s-.006-.007-.006-.012l-.016-.11a.53.53 0 0 1 .163-.466c.004-.004.009-.006.015-.006s.011.003.015.007.006.009.006.015a.021.021 0 0 1-.007.015.484.484 0 0 0-.15.429l.016.11-.001.01zM20.407 7.397a.185.185 0 0 1-.023.044l-.006.006a.011.011 0 0 1-.008.003h-.008l-.008-.004-.006-.006c-.002-.002-.002-.005-.003-.008s0-.006.001-.008a.016.016 0 0 1 .004-.007.127.127 0 0 0 .014-.124c-.008-.02-.021-.038-.038-.052s-.038-.023-.059-.026l-.425-.072a.524.524 0 0 1-.392-.299l-.182-.39c-.01-.022-.026-.04-.046-.053s-.044-.02-.067-.021c-.024-.001-.048.006-.068.018s-.038.03-.049.051l-.199.382a.532.532 0 0 1-.405.281l-.427.052a.132.132 0 0 0-.106.086.127.127 0 0 0 .03.133l.301.307a.525.525 0 0 1 .141.473l-.082.423a.121.121 0 0 0 .007.073l.002.008-.001.008a.03.03 0 0 1-.005.007l-.007.005-.008.002-.008-.002a.03.03 0 0 1-.007-.005l-.004-.007a.162.162 0 0 1-.009-.097l.082-.422a.488.488 0 0 0-.131-.436l-.301-.307c-.022-.023-.038-.051-.045-.082s-.005-.063.006-.093c.01-.03.029-.056.054-.076s.055-.033.086-.036l.427-.052a.492.492 0 0 0 .374-.259l.199-.382c.015-.028.037-.052.064-.068s.059-.024.09-.024c.032.001.063.01.089.028s.048.042.061.071l.182.39a.482.482 0 0 0 .362.275l.425.072a.17.17 0 0 1 .118.082.17.17 0 0 1 .015.143z"/>
      <path fill="var(--color8, #fbd26d)" d="M14.164 7.543c.011 0 .023.002.033.007l.572.276a.277.277 0 0 0 .263-.009l.551-.315c.01-.006.021-.009.032-.01s.021.002.03.006a.072.072 0 0 1 .04.044c.003.01.004.02.002.03l-.085.629a.28.28 0 0 0 .09.248l.47.427c.01.009.017.02.02.033a.07.07 0 0 1-.02.071.065.065 0 0 1-.034.017l-.624.113a.284.284 0 0 0-.208.162l-.261.579c-.005.012-.014.022-.025.029s-.023.011-.036.012-.026-.003-.037-.009a.07.07 0 0 1-.027-.027l-.301-.56a.282.282 0 0 0-.218-.147l-.631-.069a.07.07 0 0 1-.059-.045c-.004-.012-.005-.025-.003-.038s.009-.025.018-.034l.439-.459a.28.28 0 0 0 .073-.254l-.129-.622a.068.068 0 0 1 .013-.057c.006-.008.014-.015.023-.019s.019-.008.029-.008z"/>
      <path fill="var(--color4, #fff)" opacity=".67" d="M15.516 8.356c.003 0 .007.001.01.003s.005.005.006.008a.378.378 0 0 0 .1.149l.179.162c.003.003.005.007.005.011s-.001.008-.004.011c-.003.003-.007.005-.011.005s-.008-.001-.011-.004l-.179-.163a.399.399 0 0 1-.108-.161c-.001-.004-.001-.008.001-.012s.005-.007.009-.008l.005-.001zM15.158 7.851l.008.002a.017.017 0 0 1 .008.018.018.018 0 0 1-.007.01l-.074.042a.401.401 0 0 1-.377.013c-.004-.002-.007-.005-.008-.009s-.001-.008.001-.012.005-.007.009-.008a.017.017 0 0 1 .012.001.372.372 0 0 0 .347-.012l.074-.042a.019.019 0 0 1 .007-.002zM14.372 7.751c.013 0 .025.001.038.004.004.001.008.004.01.008s.003.008.001.012c-.001.004-.004.008-.008.01s-.008.003-.012.001c-.016-.004-.033-.004-.049 0s-.031.013-.043.024a.096.096 0 0 0-.028.091l.067.322a.41.41 0 0 1-.103.363l-.228.238a.1.1 0 0 0 .061.166l.327.036a.398.398 0 0 1 .312.211l.156.29c.009.016.022.03.038.039a.096.096 0 0 0 .103-.004.107.107 0 0 0 .035-.041l.135-.3a.407.407 0 0 1 .297-.232l.324-.059a.095.095 0 0 0 .05-.025l.005-.004.006-.001.006.001.005.004c.001.002.003.003.003.005l.001.006-.002.006-.004.005a.13.13 0 0 1-.067.034l-.324.059a.372.372 0 0 0-.274.214l-.135.3a.128.128 0 0 1-.114.077.129.129 0 0 1-.119-.068l-.156-.29a.377.377 0 0 0-.288-.195l-.327-.036a.128.128 0 0 1-.113-.156.137.137 0 0 1 .033-.063l.227-.238a.377.377 0 0 0 .096-.334l-.067-.322c-.004-.019-.004-.038.001-.056s.013-.036.024-.051a.127.127 0 0 1 .097-.05z"/>
      <path fill="var(--color8, #fbd26d)" d="M12.625 10.443a.04.04 0 0 1 .021.005l.358.172a.182.182 0 0 0 .165-.006l.345-.197c.006-.004.013-.006.02-.006s.013.001.019.004.011.006.016.011c.004.005.007.01.009.016s.002.012.001.018l-.053.394a.172.172 0 0 0 .056.154l.294.267c.006.005.01.013.013.02s.002.016 0 .024-.007.015-.013.02-.014.009-.022.011l-.391.071a.179.179 0 0 0-.129.102l-.164.362c-.003.007-.009.014-.015.018a.045.045 0 0 1-.063-.016l-.188-.35a.176.176 0 0 0-.137-.092l-.395-.043c-.008-.001-.016-.004-.022-.009s-.011-.012-.014-.019-.003-.016-.002-.024a.043.043 0 0 1 .011-.021l.275-.287a.176.176 0 0 0 .045-.159l-.081-.389v-.019a.034.034 0 0 1 .008-.017c.004-.005.009-.009.015-.012s.012-.005.018-.005z"/>
      <path fill="var(--color4, #fff)" opacity=".67" d="m13.472 10.952.006.002.004.005a.234.234 0 0 0 .062.093l.112.102c.002.002.003.004.003.007s-.001.005-.003.007-.004.003-.007.003-.005-.001-.007-.003l-.112-.102a.258.258 0 0 1-.068-.101l-.001-.004.001-.004.002-.003.003-.002.003-.001zM13.248 10.636l.006.002.004.005v.007c0 .003-.002.004-.004.005l-.046.026a.254.254 0 0 1-.236.008l-.003-.002-.002-.003-.001-.004.001-.004.002-.003.003-.002h.004l.004.001c.034.016.072.024.11.023s.075-.012.108-.031l.046-.026.005-.002zM12.756 10.574l.024.003c.002.001.005.002.006.005s.002.005.001.007c-.001.003-.002.005-.005.006s-.005.002-.007.001c-.01-.003-.021-.003-.031 0s-.019.008-.027.015c-.008.007-.013.016-.017.026s-.004.021-.001.031l.042.202c.008.04.007.082-.004.121s-.032.076-.061.105l-.142.149c-.008.008-.013.019-.016.03s-.001.023.003.034c.004.011.011.02.02.027s.02.011.031.013l.205.022a.262.262 0 0 1 .196.132l.098.181c.005.01.014.018.024.024s.021.009.033.008a.06.06 0 0 0 .054-.036l.085-.188a.25.25 0 0 1 .186-.146l.203-.037a.058.058 0 0 0 .032-.016c.002-.002.004-.003.007-.003s.005.001.007.003.003.004.003.007-.001.005-.003.007a.08.08 0 0 1-.042.021l-.203.037a.23.23 0 0 0-.171.134l-.085.188c-.006.014-.016.026-.029.034s-.027.013-.043.014-.03-.003-.044-.011a.086.086 0 0 1-.031-.032l-.098-.181a.24.24 0 0 0-.18-.122l-.205-.022a.082.082 0 0 1-.068-.053c-.005-.014-.006-.03-.003-.045s.01-.029.021-.04l.142-.149c.026-.027.045-.061.056-.097s.012-.075.004-.112l-.042-.202c-.002-.012-.002-.024.001-.035s.008-.022.015-.032a.082.082 0 0 1 .061-.031z"/>
      <path fill="var(--color8, #fbd26d)" d="M23.63 7.979a.066.066 0 0 0-.033.009l-.564.293a.283.283 0 0 1-.263-.001l-.561-.298a.09.09 0 0 0-.032-.009c-.01 0-.021.003-.03.007s-.018.011-.024.019c-.007.008-.011.017-.014.026s-.003.02-.001.03l.104.627a.28.28 0 0 1-.082.25l-.457.441a.07.07 0 0 0 .003.103c.01.009.022.014.035.016l.628.094a.288.288 0 0 1 .212.156l.278.571c.006.012.015.022.026.028s.024.011.037.011c.013 0 .026-.004.037-.01s.02-.017.026-.028l.284-.568a.282.282 0 0 1 .214-.153l.629-.088c.013-.002.025-.007.035-.015s.017-.019.022-.032c.004-.012.005-.026.002-.038s-.01-.024-.019-.033l-.453-.445a.282.282 0 0 1-.08-.25l.11-.625a.07.07 0 0 0-.015-.057.072.072 0 0 0-.054-.026z"/>
      <path fill="var(--color4, #fff)" opacity=".67" d="M22.303 8.833c-.003 0-.007.001-.009.003s-.005.005-.006.008a.39.39 0 0 1-.095.152l-.174.168-.004.005a.013.013 0 0 0-.001.012l.003.005.005.004.006.001.006-.001c.002 0 .004-.002.005-.004l.174-.168a.401.401 0 0 0 .103-.165l.001-.007a.01.01 0 0 0-.003-.007c-.001-.002-.003-.004-.006-.005l-.007-.002z"/>
      <path fill="var(--color8, #fbd26d)" opacity=".67" d="m22.646 8.317-.008.002a.017.017 0 0 0-.006.006c-.002.004-.002.008-.001.012s.004.007.008.009l.075.04a.4.4 0 0 0 .377.001l.005-.004.003-.005.001-.006-.002-.006-.004-.005-.005-.003-.006-.001-.006.002a.375.375 0 0 1-.348-.002l-.075-.04a.019.019 0 0 0-.007-.002z"/>
      <path fill="var(--color4, #fff)" opacity=".67" d="M23.428 8.194a.165.165 0 0 0-.038.005c-.004.001-.007.004-.009.008s-.002.008-.001.012.004.007.007.009.008.003.012.002c.016-.005.033-.005.049-.002s.031.012.044.023a.097.097 0 0 1 .032.09l-.057.324a.411.411 0 0 0 .115.359l.235.231c.013.013.022.029.027.047s.004.036-.002.054-.016.033-.03.045a.1.1 0 0 1-.049.022l-.326.046a.405.405 0 0 0-.306.22l-.147.294c-.008.016-.021.03-.036.04s-.034.015-.052.015a.098.098 0 0 1-.088-.055l-.144-.296a.41.41 0 0 0-.305-.223l-.326-.049a.097.097 0 0 1-.051-.024c-.003-.002-.007-.004-.011-.003s-.008.002-.01.005c-.003.003-.004.007-.004.011s.002.008.004.011a.134.134 0 0 0 .068.032l.326.049a.373.373 0 0 1 .281.205l.144.296a.13.13 0 0 0 .117.073c.024 0 .048-.007.069-.019s.037-.031.048-.053l.147-.294a.372.372 0 0 1 .282-.203l.326-.046c.024-.003.047-.013.065-.029a.132.132 0 0 0 .043-.131.132.132 0 0 0-.035-.062l-.235-.231c-.043-.042-.075-.095-.094-.152s-.023-.119-.012-.179l.057-.324a.13.13 0 0 0-.041-.119.13.13 0 0 0-.086-.033z"/>
      <path fill="var(--color8, #fbd26d)" d="M25.012 10.254a.046.046 0 0 0-.02.005l-.353.183c-.026.013-.054.02-.082.02s-.057-.007-.082-.021l-.351-.187c-.006-.003-.013-.005-.02-.005s-.013.002-.019.004a.046.046 0 0 0-.024.029.04.04 0 0 0-.001.019l.065.392c.005.028.002.057-.007.085s-.024.052-.045.072l-.286.276c-.006.006-.01.013-.012.021s-.002.016.001.024.007.015.013.02a.044.044 0 0 0 .022.01l.393.059a.173.173 0 0 1 .132.097l.174.357c.004.007.009.014.016.018s.015.007.023.007.016-.002.023-.007a.04.04 0 0 0 .016-.018l.177-.356c.013-.026.032-.048.055-.065s.05-.028.079-.032l.394-.055c.008-.001.016-.004.022-.01s.011-.012.014-.02c.003-.008.003-.016.001-.024s-.006-.015-.012-.021l-.283-.279c-.02-.02-.036-.045-.044-.072s-.011-.056-.006-.085l.069-.391v-.019a.034.034 0 0 0-.008-.017c-.004-.005-.009-.009-.015-.012s-.012-.004-.019-.004z"/>
      <path fill="var(--color4, #fff)" opacity=".67" d="m24.182 10.789-.006.002-.004.005a.233.233 0 0 1-.06.095l-.109.105-.002.003-.001.004.001.004.002.003.003.002.004.001.004-.001.003-.002.109-.105a.255.255 0 0 0 .065-.103v-.004l-.001-.004-.002-.003-.003-.002h-.003zM24.396 10.466l-.005.002a.008.008 0 0 0-.004.004l-.001.004v.004l.002.003.003.002.047.025c.036.019.077.029.118.03s.082-.01.118-.029c.002-.001.004-.003.005-.006s.001-.005-.001-.008c-.001-.002-.003-.004-.006-.005s-.005-.001-.008.001c-.034.017-.071.027-.109.026s-.075-.01-.109-.027l-.047-.025-.005-.001zM24.886 10.389a.099.099 0 0 0-.024.003l-.004.002-.003.003-.001.004v.004l.002.004c.001.002.002.002.003.002l.004.001.004-.001c.01-.003.021-.003.031-.001s.02.007.027.014c.008.007.014.016.017.026s.004.021.002.031l-.036.203c-.007.041-.004.082.008.121s.034.075.064.104l.147.144c.008.008.014.018.017.029s.002.023-.001.034c-.004.011-.01.021-.019.028s-.019.012-.031.014l-.204.029a.254.254 0 0 0-.192.138l-.092.184a.061.061 0 0 1-.056.034.057.057 0 0 1-.032-.009.07.07 0 0 1-.023-.025l-.09-.185a.251.251 0 0 0-.19-.139l-.204-.031a.063.063 0 0 1-.032-.015l-.003-.002-.004-.001-.004.001-.003.002-.002.003-.001.004.001.004.002.003a.086.086 0 0 0 .042.02l.204.031a.233.233 0 0 1 .176.129l.09.185a.08.08 0 0 0 .073.045.08.08 0 0 0 .073-.045l.092-.184c.017-.034.042-.063.073-.085s.066-.036.104-.042l.204-.029a.08.08 0 0 0 .066-.055c.005-.014.005-.03.002-.045s-.011-.028-.022-.039l-.147-.144a.236.236 0 0 1-.067-.207l.036-.203c.002-.012.002-.024-.002-.035s-.009-.022-.016-.031c-.008-.009-.017-.016-.028-.022s-.022-.008-.034-.008z"/>
      <path fill="var(--color4, #fff)" d="M24.004 12.548H13.05a.152.152 0 0 0-.152.152v10.638c0 .084.068.152.152.152h10.954a.152.152 0 0 0 .152-.152V12.7a.152.152 0 0 0-.152-.152z"/>
      <path fill="var(--color2, #027fc2)" d="M21.361 13.076h-5.129a.054.054 0 0 0-.054.054v.562c0 .03.024.054.054.054h5.129c.03 0 .054-.024.054-.054v-.562a.054.054 0 0 0-.054-.054zM23.6 14.51h-9.998a.054.054 0 0 0-.054.054v.505c0 .03.024.054.054.054H23.6c.03 0 .054-.024.054-.054v-.505a.054.054 0 0 0-.054-.054zM19.921 15.887h-6.35a.054.054 0 0 0-.054.054v.505c0 .03.024.054.054.054h6.35c.03 0 .054-.024.054-.054v-.505a.054.054 0 0 0-.054-.054zM23.308 17.284h-9.691a.054.054 0 0 0-.054.054v.505c0 .03.024.054.054.054h9.691c.03 0 .054-.024.054-.054v-.505a.054.054 0 0 0-.054-.054zM21.598 18.661h-8.012a.054.054 0 0 0-.054.054v.505c0 .03.024.054.054.054h8.012c.03 0 .054-.024.054-.054v-.505a.054.054 0 0 0-.054-.054zM23.631 20.133h-9.998a.054.054 0 0 0-.054.054v.505c0 .03.024.054.054.054h9.998c.03 0 .054-.024.054-.054v-.505a.054.054 0 0 0-.054-.054zM19.465 21.51h-5.863a.054.054 0 0 0-.054.054v.505c0 .03.024.054.054.054h5.863c.03 0 .054-.024.054-.054v-.505a.054.054 0 0 0-.054-.054z"/>
      <path fill="var(--color9, #060606)" d="M24.575 27.55c.256.022.701.058 1.052.074.211.009.332-.011.402-.039l-.001.022c-.001.018-.008.035-.021.048s-.03.02-.048.021c-.459.026-.918.027-1.377.001-.009 0-.017-.003-.025-.008s-.014-.011-.018-.019-.006-.016-.006-.025c0-.009.003-.017.007-.025a.336.336 0 0 1 .035-.049z"/>
      <path fill="var(--color10, #3b3d42)" d="M25.626 27.624a27.185 27.185 0 0 1-1.052-.074c.252-.309 1.052-.517 1.052-.517h.226a.947.947 0 0 1 .176.552c-.07.028-.191.049-.402.039z"/>
      <path fill="var(--color11, #000)" d="m25.89 26.664-.021.418c-.001.022-.01.043-.025.06s-.035.027-.057.03a.363.363 0 0 1-.17-.014.113.113 0 0 1-.076-.087l-.073-.407h.421z"/>
      <path fill="var(--color9, #060606)" d="M28.824 27.621c.111-.016.161-.073.182-.135v.002c.016.065-.022.133-.097.165a.636.636 0 0 1-.269.042.267.267 0 0 1-.202-.093l-.001-.001c.084.041.202.046.387.02z"/>
      <path fill="var(--color10, #3b3d42)" d="M28.3 26.662h.186c.284-.006.462.593.52.824-.021.062-.071.119-.183.135-.185.026-.303.021-.387-.02-.153-.202-.229-.497-.266-.669-.042-.196.128-.269.128-.269z"/>
      <path fill="var(--color11, #000)" d="m28.462 26.273.103.411c.006.025.004.05-.007.073s-.029.042-.051.053a.393.393 0 0 1-.214.052c-.017-.002-.033-.009-.047-.02s-.024-.026-.029-.042l-.152-.433.397-.094z"/>
      <path fill="var(--color12, #2f2f2f)" d="M28.585 26.392c-.129.114-.547.129-.547.129-1.508-3.618-2.124-4.132-2.124-4.132.218 1.366.035 4.389.035 4.389-.249.11-.57 0-.57 0a23.28 23.28 0 0 0-.77-5.723c1.019-.023 1.561-.372 1.738-.512.849 1.369 2.238 5.848 2.238 5.848z"/>
      <path fill="var(--color13, #096495)" d="M26.089 16.383c.193.962.124 2.684.078 3.47-.013.221.141.527.266.735.005.008.008.016.009.025s0 .018-.002.027c-.003.009-.007.017-.012.024s-.013.013-.021.017c-.209.107-.915.439-1.734.481a.117.117 0 0 1-.117-.087c-.607-2.268-1.313-3.717-1.313-3.717.779-1.244 2.846-.973 2.846-.973z"/>
      <path fill="var(--color11, #000)" d="M25.811 22.303a.043.043 0 0 0 .025-.007c.011-.007.019-.017.022-.03s.001-.026-.006-.036a1.512 1.512 0 0 0-.598-.519.049.049 0 0 0-.067.06.049.049 0 0 0 .025.028c.368.178.555.479.557.482.004.007.01.013.018.017s.015.006.024.006zM27.298 19.144c-.062.448-.245.937-.611 1.456l-.139-.113s.161-.652.069-1.392c.226-.044.493.001.681.049z"/>
      <path fill="var(--color14, #3296cc)" d="M26.088 17.704s-.116-.095-.148-.663.147-.659.147-.659 1.439 1.1 1.21 2.761c-.188-.048-.455-.093-.681-.049-.066-.533-.047-.977-.529-1.39zM23.242 17.356l.556 1.197c-.09.722-.478 1.035-.896 1.155a2.55 2.55 0 0 0-.186-.779c.535-.552.527-1.572.527-1.572z"/>
      <path fill="var(--color11, #000)" d="M22.715 18.928c.103.248.166.511.187.779-1.116.433-1.412-.407-1.412-.407l.207-.036c.465.049.791-.101 1.019-.336zM23.754 15.879l.268.986a.193.193 0 0 0 .257.127 3.91 3.91 0 0 0 .387-.177.257.257 0 0 0 .09-.371l-.558-.832-.445.265z"/>
      <path fill="var(--color11, #000)" d="M23.167 15.13c-.003.017.224 1.125.224 1.125l.63-.143-.058-1.082s-.755-.184-.796.1z"/>
      <path fill="var(--color10, #3b3d42)" d="m23.821 15.271.075.567a.08.08 0 0 1 0 .022c-.006.044-.039.196-.192.153-.139-.039-.266-.073-.354-.046-.019.006-.035.018-.045.036s-.014.037-.01.057c.021.101.071.327.145.517.007.019.021.034.039.042s.038.01.058.005c.119-.034.369-.115.555-.227.012-.007.023-.018.029-.031s.01-.027.01-.041a8.303 8.303 0 0 1-.009-.701c.013-.114.154-.183.215-.208.01-.004.019-.01.026-.017s.013-.017.017-.026c.028-.071.067-.235-.139-.302-.01-.003-.02-.009-.028-.016s-.015-.016-.02-.025a.079.079 0 0 1-.003-.063c.031-.085.044-.215-.116-.287-.163-.073-.284.014-.349.084a.082.082 0 0 1-.102.012c-.019-.012-.043-.016-.072.002-.009.006-.02.009-.031.011s-.022 0-.033-.003a.083.083 0 0 1-.049-.042c-.039-.08-.118-.165-.277-.138-.282.048-.314.362-.24.544s.378.114.53.021c.116-.07.266.003.331.043a.077.077 0 0 1 .037.057z"/>
      <path fill="var(--color11, #000)" d="M24.148 15.83s-.116-.325.003-.405.296-.038.257.197c-.049.293-.26.207-.26.207zM21.573 19.454c-.056.044-.249-.048-.366-.111-.028-.015-.05-.039-.062-.068s-.013-.062-.004-.092c.028-.089.076-.205.134-.219.096-.024.53.31.298.491z"/>
      <path fill="var(--color15, #0f9eeb)" d="m29.648 21.562-11.407-3.448-.514 1.677 11.408 3.559a.526.526 0 0 0 .62-.259c.12-.231.228-.589.211-1.116a.449.449 0 0 0-.319-.413z"/>
      <path fill="var(--color10, #3b3d42)" d="m14.752 17.855 1.558.116c.009.213-.048.492-.269.82L14.707 18c-.072-.042-.037-.151.045-.145z"/>
      <path fill="var(--color11, #000)" d="M18.241 18.114a2.161 2.161 0 0 1-.514 1.677l-1.687-1c.221-.328.278-.607.269-.82l1.932.143z"/>
      <path fill="var(--color13, #096495)" d="M29.534 22.074c.008 0 .015-.004.021-.009s.009-.012.01-.02-.001-.015-.005-.022a.042.042 0 0 0-.018-.014L18.63 18.734c-.008-.003-.017-.002-.025.003s-.013.011-.016.02c-.002.008-.002.017.003.025s.011.013.02.016l10.912 3.275c.004.001.008.002.012.001zM29.379 22.729c.008 0 .015-.003.021-.009s.009-.012.01-.02c.001-.008-.001-.016-.005-.022s-.011-.011-.018-.014l-10.912-3.275c-.008-.002-.017-.002-.025.003s-.013.011-.016.02c-.003.008-.002.017.003.025s.011.013.02.016l10.912 3.275.011.001z"/>
      <path fill="var(--color11, #000)" d="m26.605 20.467-.65-.053-.281.259s.067.092.275.039.493-.066.493-.066.287.129.291-.113l-.128-.067z"/>
    </symbol>
    <symbol id="hero-t" viewBox="0 0 47 32">
      <path fill="var(--color1, #ecf8fc)" d="M5.043 6.624c3.108-2.752 8.122-2.9 12.487-4.074C21.361 1.52 25.003-.39 28.977.188c4.036.587 7.086 3.075 9.937 5.471 2.954 2.483 5.708 5.157 6.7 8.514 1.09 3.689 1.732 7.951-.913 11.073-2.606 3.075-7.919 3.268-12.266 4.481-3.895 1.087-7.622 2.31-11.74 2.217-4.884-.111-10.117-.263-13.883-2.797C2.797 26.446.368 22.268.036 18.043c-.325-4.136 1.562-8.368 5.007-11.419z"/>
      <path fill="var(--color16, #328cbd)" d="M23.664 23.511c.313-.109.689-.025.98.172.406.277.689.724 1.011 1.12s.719.766 1.193.798c.444.029.861-.246 1.2-.571.868-.831 1.506-2.085 2.605-2.416a1.03 1.03 0 0 1 .542-.035c.226.069.43.213.584.412.55.649.789 1.613 1.441 2.128.53.42 1.261.446 1.851.149.506-.258.905-.713 1.335-1.108s.943-.745 1.497-.714c.396.022.759.235 1.132.388s.805.24 1.149.023c.542-.34.684-1.125.647-1.823-.181-.841-.536-1.688-1.243-1.991-.766-.33-1.671.123-2.439-.206-1.149-.492-1.328-2.371-2.389-3.072-.264-.168-.563-.253-.866-.245s-.598.109-.855.291c-.963.707-1.097 2.392-2.113 2.998-.501.299-1.099.258-1.665.295s-1.195.213-1.485.76c-.239.45-.178 1.012-.171 1.535s-.097 1.129-.508 1.378c-.505.303-1.09-.123-1.609-.386-.585-.295-1.334-.36-1.817.114l-.007.006z"/>
      <path fill="var(--color10, #3b3d42)" opacity=".04" d="m14.529 18.87 1.627 2.993c.265.487.128 1.123-.305 1.421l-4.696 3.227c-.433.298-.999.144-1.264-.343l-1.627-2.993c-.265-.487-.128-1.123.305-1.421l4.696-3.227c.433-.298.999-.144 1.264.343z"/>
      <path fill="var(--color10, #3b3d42)" opacity=".04" d="m14.87 18.636 1.627 2.993c.265.487.128 1.123-.305 1.421l-4.696 3.227c-.433.298-.999.144-1.264-.343l-1.627-2.993c-.265-.487-.128-1.123.305-1.421l4.696-3.227c.433-.298.999-.144 1.264.343z"/>
      <path fill="var(--color10, #3b3d42)" opacity=".04" d="m12.846 19.934 1.698 3.122-3.33.144 1.632-3.266z"/>
      <path fill="var(--color17, #1f6387)" d="m14.395 18.377 1.627 2.993c.265.487.128 1.123-.305 1.421l-4.696 3.227c-.433.298-.999.144-1.264-.343L8.13 22.682c-.265-.487-.128-1.123.305-1.421l4.696-3.227c.433-.298.999-.144 1.264.343z"/>
      <path fill="var(--color11, #000)" d="m14.777 18.492 1.622 2.981c.264.485.128 1.119-.303 1.416l-4.678 3.218c-.432.297-.995.144-1.259-.341l-1.622-2.981c-.264-.485-.128-1.119.303-1.416l4.678-3.218c.432-.297.995-.144 1.259.341z"/>
      <path fill="var(--color18, #f9e6d9)" d="m12.617 19.676 1.698 3.122-3.33.144 1.632-3.266z"/>
      <path fill="var(--color13, #096495)" d="M28.836 26.931c.12-1.058-.476-2.165-1.364-2.537-.713-.299-1.625-.208-2.098-.879-.236-.334-.294-.775-.366-1.198a4.971 4.971 0 0 0-.056-.286c.038.698-.105 1.482-.646 1.823-.346.217-.779.129-1.149-.023s-.736-.366-1.132-.388c-.554-.031-1.066.32-1.497.714s-.829.853-1.335 1.108c-.591.297-1.321.27-1.852-.149-.652-.517-.891-1.479-1.441-2.128a1.182 1.182 0 0 0-.584-.412 1.031 1.031 0 0 0-.542.035c-1.099.332-1.737 1.585-2.605 2.416-.339.325-.755.603-1.2.571-.473-.032-.873-.402-1.193-.798s-.605-.843-1.011-1.12c-.289-.197-.667-.281-.98-.172-.507.506-.601 1.481-1.226 1.78-.542.258-1.157-.159-1.744-.095-.753.086-1.245.921-1.475 1.742l25.495-.004z"/>
      <path fill="var(--color15, #0f9eeb)" d="M37.584 24.099V13.634s-.07.484-.37.484-.369-.484-.369-.484v10.465h.739z"/>
      <path fill="var(--color13, #096495)" d="M39.367 24.099V13.634s-.07.424-.316.424-.315-.424-.315-.424v10.465h.63z"/>
      <path fill="var(--color2, #027fc2)" d="M38.737 24.099V13.634s-.126.538-.577.538-.576-.538-.576-.538v10.465h1.153z"/>
      <path fill="var(--color11, #000)" d="m39.367 13.634-.758-2.271c-.269.665-1.05.334-1.05.334l-.715 1.937s.07.484.369.484.37-.484.37-.484.126.538.576.538.577-.538.577-.538.07.424.315.424.316-.424.316-.424z"/>
      <path fill="var(--color10, #3b3d42)" d="m38.61 11.363-.051-.155a.284.284 0 0 0-.138-.166l-.271-.138a.231.231 0 0 0-.205-.007.25.25 0 0 0-.088.064.313.313 0 0 0-.059.098l-.236.638s.78.33 1.049-.335z"/>
      <path fill="var(--color13, #096495)" d="M44.721 26.937c.12-1.058-.476-2.165-1.364-2.537-.713-.299-1.625-.208-2.098-.879-.236-.334-.294-.775-.366-1.198a4.971 4.971 0 0 0-.056-.286c.038.698-.105 1.482-.647 1.823-.346.217-.779.129-1.149-.023s-.736-.366-1.132-.388c-.554-.031-1.066.32-1.497.714s-.829.853-1.335 1.108c-.591.297-1.321.27-1.852-.149-.652-.517-.891-1.479-1.441-2.128a1.182 1.182 0 0 0-.584-.412 1.031 1.031 0 0 0-.542.035c-1.099.332-1.737 1.585-2.604 2.416-.339.325-.755.603-1.2.571-.473-.032-.873-.402-1.193-.798s-.605-.843-1.011-1.12c-.289-.197-.667-.281-.98-.172-.507.506-.601 1.481-1.226 1.78-.542.258-1.157-.159-1.744-.095-.753.086-1.245.921-1.475 1.742l25.495-.004z"/>
      <path fill="var(--color10, #3b3d42)" opacity=".04" d="M8.799 2.582h10.7c.508 0 .919.463.919 1.034v1.082c0 .571-.412 1.034-.919 1.034h-10.7c-.508 0-.919-.463-.919-1.034V3.616c0-.571.412-1.034.919-1.034z"/>
      <path fill="var(--color11, #000)" d="M19.12 2.324H8.42c-.508 0-.919.463-.919 1.034V4.44c0 .571.412 1.034.919 1.034h10.7c.508 0 .919-.463.919-1.034V3.358c0-.571-.412-1.034-.919-1.034z"/>
      <path fill="var(--color8, #fbd26d)" d="m9.163 2.746.277.631.618.101-.447.491.106.693-.553-.327-.553.327.105-.693-.447-.491.619-.101.277-.631zM11.185 2.746l.277.631.619.101-.447.491.106.693-.554-.327-.553.327.106-.693-.447-.491.618-.101.276-.631z"/>
      <path fill="var(--color7, #f7b614)" d="m13.668 3.948.106.693-.553-.327.276-.957.619.101-.448.491z"/>
      <path fill="var(--color8, #fbd26d)" d="m13.498 3.357-.277.957-.553.327.106-.693-.447-.491.618-.101.276-.631.277.631z"/>
      <path fill="var(--color7, #f7b614)" d="m15.244 2.726.276.631.618.101-.447.491.106.693-.553-.327-.553.327.106-.693-.448-.491.619-.101.277-.631zM18.588 1.345l.269 1.609 1.332.663-1.279.786-.149 1.629-1.059-1.124-1.424.344.624-1.48-.731-1.417 1.444.209.973-1.219z"/>
      <path fill="var(--color11, #000)" d="M37.396 17.516s1.349 1.605.176 3.076c0 0 .879 1.755-.685 3.025 0 0 .297 2.866-1.974 3.304H23.85l1.169-8.366s.341-1.877 1.618-3.05 2.549-4.458 2.441-6.617c-.109-2.159 4.328-1.695 3.116 2.558s-.773 4.314.771 3.89c1.544-.425 4.202-1.147 4.431 2.179z"/>
      <path fill="var(--color3, #51bcf4)" d="M24.133 17.363h-4.596c-.244 0-.478.109-.65.303s-.269.457-.269.731v8.527h6.435v-8.527c0-.274-.097-.537-.269-.731s-.406-.303-.65-.303z"/>
      <path fill="var(--color18, #f9e6d9)" d="M20.019 26.289c-.475 0-.861-.434-.861-.968s.386-.968.861-.968c.476 0 .861.433.861.968s-.385.968-.861.968z"/>
      <path fill="var(--color10, #3b3d42)" opacity=".67" d="M26.094 16.111s-.724 6.471-7.477 7.678v-5.393s-.031-.96.919-1.034h4.596s.853-.016.919 1.034c.001 0 .365-1.482 1.043-2.285z"/>
      <path fill="var(--color10, #3b3d42)" d="M28.158 8.603a2.135 2.135 0 0 1-.009 1.615l.043.022c.063-.188.144-.367.242-.535.181-.267.474-.397.744-.542s.548-.345.639-.664c.084-.295-.017-.618-.153-.888s-.306-.522-.388-.82c-.217-.816.33-1.743.02-2.519-.172-.431-.571-.693-.969-.847s-.822-.227-1.203-.431a2.275 2.275 0 0 1-.829-.781c-.319-.504-.483-1.16-.94-1.505-.271-.205-.613-.266-.938-.247a2.059 2.059 0 0 0-1.337.594 2.139 2.139 0 0 0-.609 1.345c.102-.359.311-.667.593-.872.002.413.138.812.383 1.12.252.313.567.552.919.697a.981.981 0 0 0 .468.103c.028-.049.066-.09.112-.117s.097-.04.149-.038c.055.004.108.025.154.061s.081.085.102.143a.498.498 0 0 1 .019.233c-.021.136-.075.262-.157.365s-.188.176-.306.213c.008.398.349.721.699.828.37.113.762.064 1.143.119.31.045.61.159.88.336a.996.996 0 0 1 .4.431c.23.545-.268 1.159-.195 1.756.034.301.21.552.324.826z"/>
      <path fill="var(--color10, #3b3d42)" d="M24.846 4.319c-.066.284-.053.585.038.861s.255.513.47.68c.223.164.485.242.74.325s.493.172.696.345c.087.077.159.172.212.28s.087.228.098.351c.087.811-.047 2.113-.214 3.278.292.293.738.465 1.047.207a.988.988 0 0 0 .258-.401l-.043-.022a2.158 2.158 0 0 0 .009-1.615c-.114-.274-.289-.525-.325-.825-.073-.597.423-1.211.195-1.756a1.007 1.007 0 0 0-.4-.431 2.18 2.18 0 0 0-.88-.336c-.383-.055-.773-.006-1.143-.119-.35-.107-.689-.431-.699-.828a.411.411 0 0 1-.06.008z"/>
      <path fill="var(--color19, #f79244)" d="m23.608 5.164-.169 1.152c.103-.022.201-.04.282-.056.716-.486.744-1.455.744-1.455l-.857.358z"/>
      <path fill="var(--color20, #f7be86)" d="M24.846 4.319a.64.64 0 0 0 .366-.227.76.76 0 0 0 .157-.365.497.497 0 0 0-.019-.233c-.022-.057-.057-.107-.102-.143s-.098-.057-.154-.061c-.052-.002-.103.011-.149.038s-.084.068-.112.117a.97.97 0 0 1-.468-.103 2.312 2.312 0 0 1-.919-.697 1.817 1.817 0 0 1-.383-1.12 1.618 1.618 0 0 0-.593.872c-.1.324-.146.749-.061 1.301.258 1.678 1.105 1.457 1.198 1.464l.857-.358s-.028.969-.744 1.455a1.386 1.386 0 0 1-.282.149c.314 1.655 1.915-.55 1.915-.55-.215-.167-.379-.404-.47-.68s-.104-.576-.038-.86z"/>
      <path fill="var(--color5, #76838f)" d="m11.316 26.513 2.373.55.954-1.898-.49 1.898h.49l1.389-4.3h-1.863l-1.141 2.291-1.713 1.458z"/>
      <path fill="var(--color10, #3b3d42)" d="m13.308 23.963.311.158 1.565.784.348.172 1.314-3.554 1.777-5.092s1.923 1.622 4.994 1.734 2.539-3.467 2.539-3.467l-3.381-1.235-.306.043-.118-.517-.306-.093a.508.508 0 0 1-.208.023v.586h-4.556c-.133.066-.62 1.282-1.188 2.804-.996 2.676-2.784 7.655-2.784 7.655z"/>
      <path fill="var(--color5, #76838f)" d="m17.476 25.013-.627 2.229 2.015-.871-.063-2.292.853 1.898.373-.22-1.163-3.935-1.704.712.316 2.479z"/>
      <path fill="var(--color10, #3b3d42)" d="M16.848 21.523v.001l.39 2.412 2.222-.83-1.156-5.752-1.456 4.17z"/>
      <path fill="var(--color11, #000)" d="M17.873 4.607a1.924 1.924 0 0 0-.313-.543c-.005-.007-.012-.013-.019-.016s-.015-.006-.023-.006c-.018.004-.028.028-.032.048a.772.772 0 0 0 .024.351c.036.153.085.302.133.452l.145.447h-.004c-.133.124-.267.247-.394.379a.875.875 0 0 0-.241.375c-.053.207.028.431.149.598.132.156.273.302.423.436.071.073.138.151.199.234l.945-.287a43.673 43.673 0 0 0-.992-2.469z"/>
      <path fill="var(--color2, #027fc2)" d="m23.432 6.37.008-.053a3.856 3.856 0 0 0-.731.21c-.753.367-2.51 1.787-2.51 1.787l-1.446-1.637-.088.066-.855.64 2.057 2.498c.081.085.182.144.291.169s.222.016.327-.027l1.428-.585a.953.953 0 0 1-.041-.117c-.068-1.094 1.204-2.56 1.499-2.885l.06-.065v-.003z"/>
      <path fill="var(--color19, #f79244)" d="M23.432 6.37c0 .013.005.027.008.039.098-.038.193-.088.282-.149-.08.016-.178.034-.282.056l-.008.054z"/>
      <path fill="var(--color11, #000)" d="M22.118 13.004h.054v.005a.422.422 0 0 0 .176-.02l-.128-.554c-.513-.059-.981-.339-1.47-.522-.234-.086-.506-.15-.716-.004-.185.127-.268.377-.329.611a9.217 9.217 0 0 0-.091.373v.014l2.504.097z"/>
      <path fill="var(--color13, #096495)" d="M21.913 9.439c.055.132.133.249.229.347s.208.173.33.221l-.201 2.197 2.711-.673s.372-3.283.393-4.289.719-1.057.719-1.057c-.255-.086-.517-.161-.74-.325 0 0-1.6 2.204-1.915.55a1.368 1.368 0 0 1-.068.026c-.295.325-1.567 1.791-1.499 2.885.011.04.025.08.041.117z"/>
      <path fill="var(--color2, #027fc2)" d="M26.887 10.434c.168-1.165.301-2.467.215-3.277-.012-.123-.045-.243-.098-.351s-.125-.204-.212-.28c-.203-.172-.452-.258-.696-.345 0 0-.699.05-.719 1.057s-.393 4.289-.393 4.289l-2.81.697.048.21.128.554.118.517.306-.043 3.304-.457c.108-.015.21-.067.29-.15s.136-.191.159-.311c.091-.456.235-1.246.36-2.109z"/>
      <path fill="var(--color13, #096495)" d="m22.776 13.462 3.381 1.235-.077-1.692-3.304.456z"/>
      <path fill="var(--color11, #000)" d="M23.372 6.435c.023-.008.046-.016.068-.026 0-.012-.005-.026-.008-.039 0 0-.022.022-.06.065z"/>
      <path fill="var(--color5, #76838f)" d="m13.992 8.449 1.992 5.056h6.188v-.494a.195.195 0 0 1-.054-.007L19 12.885l-1.518-4.436h-3.489z"/>
      <path fill="var(--color4, #fff)" d="M24.919 7.344c.004-.054.081-.055.077 0l-.025.372c-.004.054-.08.054-.077 0l.025-.372zM24.249 7.396c.009-.055.083-.032.077.022l-.055.345c-.009.054-.083.032-.077-.022l.055-.345zM23.555 7.722l.064-.345c.011-.054.084-.032.077.022-.021.114-.044.227-.065.345-.012.058-.087.032-.076-.022zM22.954 7.298c.005-.055.081-.055.077 0l-.023.326c-.004.055-.08.055-.077 0l.023-.326zM24.606 8.147c.005-.055.081-.055.077 0l-.024.31c-.005.055-.081.055-.077 0l.024-.31zM23.827 8.449c.017-.086.034-.172.05-.264.011-.054.084-.032.077.022l-.05.264c-.012.054-.087.032-.077-.022zM23.015 8.388l.062-.265c.001-.006.004-.011.007-.016s.007-.009.012-.012c.004-.003.009-.005.015-.006s.01 0 .015.001c.005.001.01.004.014.008s.008.008.01.013l.005.016a.047.047 0 0 1-.001.017l-.062.265c-.003.011-.009.021-.018.027s-.02.008-.03.005c-.01-.003-.019-.01-.024-.021s-.007-.022-.004-.034zM24.892 8.865c.01-.054.084-.032.077.022l-.049.28c-.01.055-.084.032-.077-.022l.049-.28zM24.114 9.285l.065-.264c.003-.011.009-.021.018-.027s.02-.008.03-.005c.01.003.019.01.024.02s.007.022.004.034l-.065.264c-.001.006-.004.011-.007.016s-.007.009-.012.012c-.005.003-.009.005-.015.006s-.01.001-.015-.001-.01-.004-.014-.008-.008-.008-.01-.013l-.005-.016a.047.047 0 0 1 .001-.017zM23.447 8.943c.008-.055.082-.032.077.022l-.036.248c-.008.055-.082.032-.077-.022l.036-.248zM22.545 8.878c0-.055.077-.055.077 0l-.013.31a.039.039 0 0 1-.077 0l.013-.31zM24.555 9.761c.005-.055.083-.055.077 0l-.037.372c-.006.055-.083.055-.077 0l.037-.372zM23.699 9.811c.009-.054.084-.032.077.022l-.055.326c-.009.054-.083.032-.077-.022l.055-.326zM22.965 9.826c.009-.054.083-.032.077.022l-.042.264c-.008.054-.082.032-.077-.022l.042-.264zM22.264 8.304c.005-.054.081-.055.077 0l-.024.326c-.005.054-.081.055-.077 0l.024-.326zM24.771 10.767c.005-.055.081-.055.077 0l-.024.31c-.004.055-.08.055-.077 0l.024-.31zM24.138 10.829c.005-.055.081-.055.077 0l-.024.279c-.005.055-.081.055-.077 0l.024-.279zM23.348 10.737c0-.055.077-.055.077 0l-.018.28c-.004.054-.08.054-.077 0l.018-.28zM22.572 10.645c0-.055.077-.055.077 0 0 .119-.007.238-.01.356 0 .011-.004.022-.011.03s-.017.013-.027.013c-.01 0-.02-.005-.027-.013s-.011-.019-.011-.03l.01-.356zM23.71 11.278c0-.055.077-.055.077 0l-.012.294a.039.039 0 0 1-.077 0l.012-.294zM22.862 11.355c0-.055.077-.055.077 0l-.014.263a.039.039 0 0 1-.077 0l.014-.263zM25.57 13.306c.006-.054.083-.054.077 0l-.027.247c-.006.054-.083.055-.077 0 .01-.082.019-.165.027-.247zM24.692 13.337c.006-.054.083-.054.077 0-.008.086-.018.165-.027.248-.005.054-.082.054-.077 0l.027-.248zM25.194 13.74v.279c0 .011-.004.022-.011.03s-.017.013-.027.013c-.01 0-.02-.005-.027-.013s-.011-.019-.011-.03v-.278c0-.006.001-.011.003-.016l.008-.014.012-.009a.04.04 0 0 1 .03 0c.005.002.009.005.012.009l.008.014a.045.045 0 0 1 .003.016zM25.799 13.848c0-.055.077-.055.077 0l-.013.248c0 .055-.077.054-.077 0l.013-.248zM24.059 13.543c.007-.054.08-.032.077.022l-.028.217c-.007.055-.08.032-.077-.022l.028-.217z"/>
      <path fill="var(--color10, #3b3d42)" d="M23.394 2.595c.082-.014.165-.009.244.017s.153.07.215.13c.077.071-.032.194-.107.123-.043-.042-.094-.072-.149-.09s-.112-.022-.168-.013c-.093.015-.133-.151-.035-.167zM22.384 2.564c.075-.04.158-.054.239-.041s.158.052.22.113c.077.071-.033.194-.108.122-.037-.035-.083-.058-.131-.067s-.098-.001-.142.021c-.09.045-.168-.103-.078-.149z"/>
      <path fill="var(--color21, #d36c26)" d="m22.773 4.023.192-1.092c.009-.054.084-.032.077.022l-.188 1.071.211.032c.048.008.048.094 0 .086l-.262-.039c-.008 0-.016-.003-.022-.009s-.012-.012-.015-.021c-.003-.008-.004-.018-.003-.027s.005-.017.01-.024z"/>
      <path fill="var(--color10, #3b3d42)" d="M22.812 4.411a.687.687 0 0 0 .625.017c.044-.022.084.053.038.075a.753.753 0 0 1-.703-.016c-.046-.024-.008-.099.038-.075zM23.554 3.264c-.074 0-.133-.09-.133-.201s.06-.201.133-.201c.074 0 .133.09.133.201s-.06.201-.133.201zM22.571 3.235c-.074 0-.133-.09-.133-.201s.06-.201.133-.201c.074 0 .133.09.133.201s-.06.201-.133.201z"/>
    </symbol>
    <symbol id="logo" viewBox="0 0 27 32">
      <path fill="var(--color2, #027fc2)" d="M26.811 0 0 18.051l10.312 4.513L25.573 2.051 14.024 24.205 22.686 32l4.125-32z"/>
    </symbol>
  </defs>
</svg>
